<?xml version="1.0" encoding="UTF-8"?>
<svg xmlns="http://www.w3.org/2000/svg" xmlns:xlink="http://www.w3.org/1999/xlink" width="187px" height="37px" viewBox="0 0 187 37" version="1.1">
<g id="surface1">
<path style=" stroke:none;fill-rule:nonzero;fill:rgb(0%,0%,0%);fill-opacity:1;" d="M 13.265625 0.898438 C 12.144531 1.511719 11.582031 2.453125 11.300781 4.058594 L 10.878906 6.324219 L 8.144531 6.417969 C 4 6.511719 2.105469 8.210938 2.105469 11.75 C 2.105469 13.640625 1.753906 14.722656 1.054688 15.101562 C -0.351562 15.90625 -0.351562 19.964844 1.054688 20.953125 C 1.753906 21.378906 2.105469 22.558594 2.105469 24.257812 C 2.105469 27.65625 4.070312 29.355469 8.144531 29.449219 C 10.808594 29.542969 10.878906 29.542969 11.089844 31.527344 C 11.511719 35.300781 17.757812 36.8125 21.339844 33.933594 C 23.09375 32.5625 23.164062 32.234375 23.164062 27.089844 L 23.164062 21.710938 L 45.488281 21.710938 L 45.765625 27.417969 C 45.976562 32.988281 46.046875 33.128906 47.941406 34.261719 C 51.945312 36.574219 57.277344 35.019531 58.050781 31.335938 C 58.402344 29.542969 58.542969 29.449219 60.789062 29.449219 C 62.261719 29.449219 63.738281 29.070312 64.929688 28.316406 C 66.476562 27.371094 66.683594 26.804688 66.683594 24.257812 C 66.683594 22.085938 66.964844 21.285156 67.738281 21.046875 C 69.210938 20.671875 69.210938 15.195312 67.738281 14.820312 C 66.964844 14.582031 66.683594 13.78125 66.683594 11.75 C 66.683594 8.257812 64.71875 6.417969 60.859375 6.417969 C 58.472656 6.417969 58.402344 6.371094 58.050781 4.292969 C 57.417969 0.425781 52.085938 -1.226562 47.941406 1.132812 C 45.976562 2.265625 45.976562 2.359375 45.765625 8.210938 L 45.488281 14.15625 L 23.164062 14.15625 L 23.164062 8.449219 C 23.164062 2.785156 23.164062 2.738281 21.128906 1.367188 C 18.671875 -0.234375 15.722656 -0.425781 13.265625 0.898438 Z M 18.8125 2.972656 C 19.304688 3.351562 19.585938 7.644531 19.65625 15.007812 L 19.65625 26.429688 L 14.8125 26.429688 L 14.601562 21.613281 C 14.390625 17.320312 14.25 16.753906 13.054688 16.613281 C 11.371094 16.375 10.527344 17.273438 10.527344 19.207031 C 10.527344 20.671875 10.390625 20.765625 8.074219 20.765625 L 5.546875 20.765625 L 5.757812 15.054688 C 5.964844 10.097656 6.175781 9.25 7.230469 8.777344 C 8.28125 8.351562 8.773438 8.449219 9.898438 9.390625 C 10.597656 10.003906 11.230469 11.136719 11.230469 11.894531 C 11.230469 13.074219 11.511719 13.261719 12.847656 13.121094 C 14.320312 12.976562 14.390625 12.789062 14.390625 8.257812 C 14.390625 5.664062 14.671875 3.257812 14.953125 2.925781 C 15.722656 2.171875 17.898438 2.171875 18.8125 2.972656 Z M 54.050781 3.019531 C 54.472656 3.398438 54.824219 4.53125 54.753906 5.523438 C 54.683594 6.511719 54.613281 8.636719 54.683594 10.289062 C 54.753906 13.121094 54.824219 13.261719 56.367188 13.121094 C 57.558594 13.027344 57.980469 12.601562 58.261719 11.136719 C 58.683594 8.96875 60.367188 7.976562 62.050781 8.917969 C 62.964844 9.4375 63.175781 10.617188 63.175781 14.914062 L 63.175781 20.292969 L 60.71875 20.292969 C 58.402344 20.292969 58.261719 20.199219 58.261719 18.640625 C 58.261719 17.746094 57.980469 16.941406 57.558594 16.894531 C 55.171875 16.660156 55.101562 16.800781 54.753906 21.472656 L 54.402344 26.191406 L 52.226562 26.335938 L 49.980469 26.476562 L 49.699219 15.007812 C 49.488281 8.164062 49.628906 3.304688 50.050781 2.925781 C 50.960938 2.171875 52.996094 2.21875 54.050781 3.019531 Z M 44.433594 16.800781 C 45.066406 16.941406 45.625 17.367188 45.625 17.746094 C 45.625 18.265625 43.800781 18.40625 36.5 18.40625 C 29.339844 18.40625 27.375 18.265625 27.375 17.792969 C 27.375 17.414062 27.515625 17.035156 27.796875 16.894531 C 28.289062 16.519531 43.03125 16.421875 44.433594 16.800781 Z M 44.433594 16.800781 "/>
<path style=" stroke:none;fill-rule:nonzero;fill:rgb(0%,0%,0%);fill-opacity:1;" d="M 124.246094 15.101562 L 124.246094 27.371094 L 131.96875 27.371094 L 131.96875 2.832031 L 124.246094 2.832031 Z M 124.246094 15.101562 "/>
<path style=" stroke:none;fill-rule:nonzero;fill:rgb(0%,0%,0%);fill-opacity:1;" d="M 105.996094 6.605469 L 105.996094 9.4375 L 101.710938 9.4375 L 101.921875 11.894531 C 102.132812 14.207031 102.273438 14.394531 104.097656 14.535156 L 105.996094 14.675781 L 105.996094 19.160156 C 105.996094 25.957031 107.679688 27.371094 115.820312 27.371094 L 120.035156 27.371094 L 120.035156 25.011719 C 120.035156 22.652344 120.035156 22.652344 117.71875 22.652344 C 114.347656 22.652344 113.714844 21.945312 113.714844 18.074219 L 113.714844 14.628906 L 120.035156 14.628906 L 120.035156 9.484375 L 117.085938 9.34375 L 114.066406 9.203125 L 113.855469 6.464844 L 113.644531 3.777344 L 105.996094 3.777344 Z M 105.996094 6.605469 "/>
<path style=" stroke:none;fill-rule:nonzero;fill:rgb(0%,0%,0%);fill-opacity:1;" d="M 81.636719 9.910156 C 79.039062 10.664062 75.8125 13.121094 75.8125 14.253906 C 75.8125 14.914062 83.109375 14.628906 84.515625 13.921875 C 86.410156 12.976562 88.65625 13.027344 90.058594 14.0625 C 92.027344 15.480469 91.464844 16.046875 88.304688 16.046875 C 83.53125 16.09375 79.109375 16.941406 77.074219 18.265625 C 73.355469 20.671875 73.84375 24.492188 78.199219 26.570312 C 80.933594 27.890625 87.183594 27.984375 89.921875 26.757812 C 91.535156 26.003906 91.816406 26.003906 92.167969 26.664062 C 92.515625 27.183594 93.640625 27.371094 96.238281 27.371094 L 99.816406 27.371094 L 99.535156 20.578125 C 99.257812 12.742188 98.765625 11.894531 93.359375 10.003906 C 89.570312 8.730469 85.566406 8.683594 81.636719 9.910156 Z M 91.253906 20.765625 C 91.253906 22.792969 87.253906 24.164062 83.953125 23.3125 C 82.621094 22.984375 82.410156 20.480469 83.742188 20.152344 C 84.164062 20.011719 86.058594 19.867188 87.953125 19.867188 C 90.832031 19.820312 91.253906 19.964844 91.253906 20.765625 Z M 91.253906 20.765625 "/>
<path style=" stroke:none;fill-rule:nonzero;fill:rgb(0%,0%,0%);fill-opacity:1;" d="M 142.707031 9.863281 C 140.109375 10.664062 136.878906 13.121094 136.878906 14.253906 C 136.878906 14.960938 145.09375 14.675781 146.007812 13.921875 C 147.691406 12.554688 152.324219 13.402344 152.324219 15.101562 C 152.324219 15.90625 151.832031 16.046875 149.375 16.046875 C 144.882812 16.09375 140.25 16.941406 138.425781 18.027344 C 136.039062 19.585938 135.195312 22.226562 136.460938 24.304688 C 138.496094 27.515625 146.566406 28.742188 151.480469 26.617188 C 152.886719 26.003906 153.097656 26.003906 153.445312 26.664062 C 153.726562 27.183594 154.851562 27.371094 157.378906 27.371094 L 160.816406 27.371094 L 160.605469 20.578125 C 160.394531 13.214844 159.976562 12.410156 155.691406 10.242188 C 153.027344 8.871094 146.425781 8.683594 142.707031 9.863281 Z M 152.464844 21 C 151.621094 23.972656 143.898438 24.589844 143.898438 21.710938 C 143.898438 20.386719 145.515625 19.820312 149.234375 19.820312 C 152.675781 19.820312 152.816406 19.867188 152.464844 21 Z M 152.464844 21 "/>
<path style=" stroke:none;fill-rule:nonzero;fill:rgb(0%,0%,0%);fill-opacity:1;" d="M 168.75 9.863281 C 165.027344 10.996094 163.554688 12.460938 163.554688 14.914062 C 163.554688 16.566406 163.90625 17.132812 165.660156 18.121094 C 167.765625 19.300781 171.699219 20.292969 174.433594 20.292969 C 178.367188 20.339844 180.542969 21.613281 178.925781 22.9375 C 177.664062 23.925781 173.101562 23.785156 171.628906 22.652344 C 170.644531 21.945312 169.453125 21.710938 166.644531 21.710938 L 162.851562 21.710938 L 163.625 22.984375 C 165.660156 26.664062 172.1875 28.503906 179.207031 27.417969 C 181.3125 27.089844 183.628906 26.335938 184.753906 25.625 C 186.4375 24.539062 186.71875 23.972656 186.71875 21.898438 C 186.71875 19.726562 186.4375 19.300781 184.542969 18.21875 C 182.296875 16.941406 181.59375 16.753906 175.910156 16.1875 C 170.152344 15.574219 169.660156 13.261719 175.277344 13.214844 C 176.472656 13.214844 177.945312 13.542969 178.578125 13.921875 C 179.207031 14.347656 180.964844 14.628906 183.140625 14.628906 C 187.421875 14.628906 187.703125 14.015625 184.542969 11.609375 C 181.105469 8.917969 174.222656 8.164062 168.75 9.863281 Z M 168.75 9.863281 "/>
</g>
</svg>
